<?xml version="1.0" standalone="no"?>
<!DOCTYPE svg PUBLIC "-//W3C//DTD SVG 20010904//EN"
 "http://www.w3.org/TR/2001/REC-SVG-20010904/DTD/svg10.dtd">
<svg version="1.0" xmlns="http://www.w3.org/2000/svg"
 width="500.000000pt" height="500.000000pt" viewBox="0 0 500.000000 500.000000"
 preserveAspectRatio="xMidYMid meet">

<g transform="translate(0.000000,500.000000) scale(0.100000,-0.100000)"
fill="#000000" stroke="none">
<path d="M1917 4912 c-14 -15 -17 -40 -17 -130 l0 -112 -173 0 c-123 0 -178
-4 -190 -12 -14 -11 -17 -35 -19 -138 l-3 -125 -125 -2 c-188 -4 -170 12 -170
-158 l0 -145 -160 0 c-147 0 -160 -1 -170 -19 -6 -13 -10 -151 -10 -380 l0
-361 -131 0 c-72 0 -139 -5 -150 -10 -18 -10 -19 -25 -19 -370 l0 -360 -77
-38 c-112 -54 -181 -103 -250 -175 -109 -113 -183 -249 -219 -403 -12 -54 -15
-104 -11 -224 4 -134 8 -165 31 -229 105 -297 355 -509 652 -551 46 -6 197
-10 359 -10 154 1 351 1 438 1 l157 -1 0 -160 0 -160 -96 0 -97 0 -42 39
c-128 118 -325 42 -325 -126 0 -89 37 -148 115 -184 100 -46 217 7 256 116
l13 35 126 0 c69 0 130 4 136 8 29 19 34 56 34 241 l0 191 325 0 325 0 0 -233
0 -232 -47 -35 c-66 -49 -88 -91 -88 -166 0 -50 5 -68 28 -103 31 -47 109 -91
162 -91 36 0 123 39 147 66 48 54 60 141 29 210 -18 41 -84 104 -108 104 -10
0 -13 52 -13 240 l0 240 325 -2 324 -3 3 -197 c4 -252 -6 -238 169 -238 l127
0 12 -37 c7 -21 26 -53 44 -71 81 -87 202 -81 284 12 73 84 48 231 -48 285
-82 45 -164 35 -235 -30 l-42 -39 -97 0 -96 0 0 159 0 160 548 4 c487 3 554 5
606 21 233 69 420 260 478 487 17 71 20 101 15 194 -7 131 -25 202 -77 306
-75 148 -187 256 -345 329 -71 33 -155 56 -277 75 -34 5 -38 10 -49 48 -6 23
-28 79 -49 124 -115 246 -311 408 -574 473 -78 19 -108 21 -245 18 -134 -4
-166 -9 -226 -30 -83 -30 -164 -70 -222 -109 l-41 -29 -33 37 c-17 20 -46 67
-63 103 -29 62 -31 72 -34 215 l-4 150 119 127 118 127 158 1 157 0 0 -126 c0
-69 5 -134 10 -145 10 -18 23 -19 223 -19 152 0 216 3 225 12 9 9 12 103 12
363 0 260 -3 354 -12 363 -8 8 -55 12 -145 12 l-133 0 0 139 c0 181 13 171
-212 171 l-168 0 0 125 c0 113 -2 125 -19 135 -13 6 -140 10 -345 10 l-326 0
0 120 c0 108 -2 120 -19 130 -12 6 -102 10 -224 10 -185 0 -205 -2 -220 -18z
m1073 -473 l5 -134 183 -3 182 -2 0 -140 0 -140 145 0 145 0 0 -300 0 -300
-145 0 -145 0 0 150 0 150 -180 0 -180 0 0 150 0 150 -527 1 c-291 0 -522 3
-515 6 8 3 12 29 12 80 0 63 -2 74 -15 69 -18 -6 -21 19 -3 30 7 4 8 3 4 -4
-4 -7 -2 -12 3 -12 6 0 11 21 11 50 0 29 -5 50 -11 50 -5 0 -8 -4 -5 -9 3 -5
-4 -11 -16 -14 -22 -6 -41 10 -32 25 3 4 18 8 35 8 l29 0 0 128 c0 76 4 132
10 138 8 8 172 10 508 9 l497 -2 5 -134z m-1257 -146 c-7 -2 -19 -2 -25 0 -7
3 -2 5 12 5 14 0 19 -2 13 -5z m-86 -35 c-3 -8 -6 -5 -6 6 -1 11 2 17 5 13 3
-3 4 -12 1 -19z m253 12 c0 -5 -4 -10 -10 -10 -5 0 -10 5 -10 10 0 6 5 10 10
10 6 0 10 -4 10 -10z m-207 -20 c-3 -11 -1 -26 5 -33 5 -6 8 -22 6 -34 -3 -20
0 -23 31 -23 30 0 35 -3 34 -22 -1 -13 2 -31 6 -40 4 -11 3 -18 -4 -18 -6 0
-11 4 -11 9 0 5 -13 9 -30 9 -18 -1 -30 -6 -30 -15 0 -7 -4 -13 -10 -13 -17 0
-11 -28 8 -32 28 -6 96 11 109 28 11 15 15 13 25 -16 4 -11 -3 -15 -31 -17
-20 -1 -58 -5 -84 -9 l-48 -6 4 55 c4 41 2 57 -8 61 -8 3 -16 0 -19 -7 -2 -7
-5 -2 -5 9 -1 19 22 39 39 36 3 0 6 8 6 19 0 10 -6 18 -12 16 -7 -1 -13 3 -12
8 0 6 4 9 9 8 5 -2 9 5 9 15 0 16 8 32 16 32 1 0 0 -9 -3 -20z m-51 -47 c6
-13 8 -26 5 -30 -4 -3 -7 2 -7 13 0 16 -2 17 -10 4 -7 -11 -10 -4 -9 25 0 22
3 33 6 25 2 -8 9 -25 15 -37z m88 37 c0 -5 -4 -10 -10 -10 -5 0 -10 5 -10 10
0 6 5 10 10 10 6 0 10 -4 10 -10z m60 -10 c0 -5 -5 -10 -11 -10 -5 0 -7 5 -4
10 3 6 8 10 11 10 2 0 4 -4 4 -10z m150 1 c0 -6 -4 -13 -10 -16 -5 -3 -10 1
-10 9 0 9 5 16 10 16 6 0 10 -4 10 -9z m-143 -51 c6 -23 14 -25 31 -8 7 7 12
9 12 4 0 -4 -7 -14 -15 -22 -12 -13 -17 -13 -28 -2 -19 19 -28 48 -16 48 6 0
13 -9 16 -20z m133 5 c0 -9 -8 -18 -17 -22 -10 -3 -26 -13 -36 -21 -23 -20
-27 -13 -11 23 7 17 13 24 14 18 0 -18 27 -16 34 2 7 19 16 19 16 0z m-282
-67 c7 1 12 -10 12 -25 l0 -26 -20 23 c-11 13 -20 35 -19 49 l1 26 7 -25 c4
-14 13 -24 19 -22z m277 2 c3 -6 -1 -7 -9 -4 -18 7 -21 14 -7 14 6 0 13 -4 16
-10z m5 -30 c0 -5 -4 -10 -10 -10 -5 0 -10 5 -10 10 0 6 5 10 10 10 6 0 10 -4
10 -10z m-289 -61 c-20 -8 -25 -4 -17 16 5 13 8 14 20 3 12 -11 12 -14 -3 -19z
m316 -861 c-3 -8 -6 -5 -6 6 -1 11 2 17 5 13 3 -3 4 -12 1 -19z m-330 -30 c-3
-7 -5 -2 -5 12 0 14 2 19 5 13 2 -7 2 -19 0 -25z m333 -25 c0 -21 -3 -24 -9
-14 -5 8 -7 20 -4 28 8 21 13 15 13 -14z m-333 -105 c-3 -8 -6 -5 -6 6 -1 11
2 17 5 13 3 -3 4 -12 1 -19z m278 12 c3 -5 1 -10 -4 -10 -6 0 -11 5 -11 10 0
6 2 10 4 10 3 0 8 -4 11 -10z m26 -47 c-8 -15 -10 -15 -11 -2 0 17 10 32 18
25 2 -3 -1 -13 -7 -23z m36 -27 c3 -3 7 -47 8 -98 5 -143 3 -132 20 -118 13
10 15 9 15 -8 0 -14 -5 -20 -14 -16 -8 3 -17 1 -21 -5 -3 -6 1 -11 9 -11 9 0
16 -5 16 -11 0 -5 -4 -8 -9 -5 -9 6 -25 -23 -17 -31 2 -3 76 -5 163 -5 124 -1
162 -4 175 -16 10 -8 16 -18 13 -22 -2 -4 1 -7 8 -7 15 0 134 -80 144 -96 4
-7 -5 -4 -20 6 -15 9 -27 13 -27 8 0 -6 -7 -8 -16 -4 -10 4 -17 -1 -21 -16 -6
-24 -14 -26 -31 -9 -9 9 -12 8 -12 -4 0 -9 5 -20 10 -23 7 -4 6 -13 -1 -26
-14 -28 -25 -12 -28 40 -1 11 -5 10 -20 -3 -13 -11 -27 -15 -40 -11 -13 4 -21
2 -21 -5 0 -6 -5 -8 -12 -4 -8 5 -9 2 -5 -9 4 -12 1 -17 -9 -17 -10 0 -14 6
-10 15 4 12 -3 14 -34 12 -22 -1 -45 -8 -52 -15 -16 -16 4 -16 21 1 11 10 13
10 7 0 -8 -15 10 -18 19 -3 10 17 22 11 28 -12 8 -28 2 -34 -18 -18 -12 10
-19 10 -27 2 -9 -9 -7 -12 10 -12 12 0 22 -4 22 -10 0 -19 -20 -10 -62 28 -50
44 -84 84 -80 94 1 5 -2 8 -7 8 -5 0 -24 22 -42 50 l-34 49 -145 1 c-97 0
-140 3 -130 10 9 6 10 10 3 10 -6 0 -15 -4 -18 -10 -3 -5 -17 -10 -31 -10 -28
0 -27 -15 -25 243 l1 102 171 -2 c94 0 173 -4 176 -7z m171 -3 c-16 -2 -40 -2
-55 0 -16 2 -3 4 27 4 30 0 43 -2 28 -4z m1429 -24 c77 -20 189 -71 247 -112
58 -40 158 -142 198 -200 54 -79 88 -155 114 -256 l22 -84 78 -3 c261 -8 480
-162 579 -409 37 -92 47 -268 20 -361 -54 -188 -210 -339 -401 -388 -52 -13
-130 -16 -473 -16 l-411 0 -1 128 c-1 184 -11 291 -29 302 -8 5 -123 10 -256
10 -192 0 -244 -3 -260 -14 -18 -13 -19 -30 -22 -220 l-3 -206 -105 0 -104 0
0 202 c0 173 -2 204 -17 220 -15 16 -36 18 -256 18 -210 0 -243 -2 -259 -17
-16 -15 -18 -35 -18 -220 l0 -203 -109 0 -110 0 -3 206 c-3 190 -4 207 -22
220 -31 22 -488 21 -510 -2 -14 -13 -16 -47 -16 -220 l0 -205 -382 3 -383 3
-73 27 c-109 40 -177 84 -267 173 -89 89 -137 169 -176 295 -31 97 -33 298 -6
400 64 237 238 418 471 489 85 26 251 29 341 6 233 -60 412 -242 472 -480 10
-38 19 -72 20 -74 1 -2 32 5 67 14 135 37 275 -4 372 -107 27 -29 56 -64 64
-77 13 -20 21 -22 47 -17 28 7 33 13 42 57 27 125 124 244 252 308 100 50 168
64 294 59 94 -3 108 -6 178 -41 89 -44 154 -110 194 -198 l27 -59 48 0 c48 0
48 0 42 28 -47 195 -210 356 -398 394 -52 10 -56 13 -56 38 0 43 38 159 72
220 51 90 107 158 186 221 200 161 434 212 679 148z m-1280 -136 c-2 -21 -4
-4 -4 37 0 41 2 58 4 38 2 -21 2 -55 0 -75z m-247 47 c0 -5 -8 -10 -17 -10
-15 0 -16 2 -3 10 19 12 20 12 20 0z m207 -52 c-3 -7 -5 -2 -5 12 0 14 2 19 5
13 2 -7 2 -19 0 -25z m-234 2 c-3 -11 -7 -20 -8 -20 -1 0 -5 9 -8 20 -3 12 0
20 8 20 8 0 11 -8 8 -20z m187 -10 c0 -5 -5 -10 -11 -10 -5 0 -7 5 -4 10 3 6
8 10 11 10 2 0 4 -4 4 -10z m-83 -10 c-16 -5 -38 -5 -50 0 -17 7 -10 9 28 9
43 -1 46 -2 22 -9z m-67 -31 c0 -5 -4 -9 -10 -9 -5 0 -10 7 -10 16 0 8 5 12
10 9 6 -3 10 -10 10 -16z m113 -5 c-7 -18 -17 -18 -32 0 -9 11 -9 15 1 19 20
7 37 -3 31 -19z m97 1 c-7 -9 -15 -13 -18 -10 -3 2 1 11 8 20 7 9 15 13 18 10
3 -2 -1 -11 -8 -20z m-167 -28 c-7 -11 -23 12 -23 32 0 11 4 9 14 -4 8 -11 12
-24 9 -28z m122 33 c3 -5 1 -10 -4 -10 -6 0 -11 5 -11 10 0 6 2 10 4 10 3 0 8
-4 11 -10z m-145 -53 c9 -4 5 -6 -10 -4 -16 1 -26 9 -28 22 -2 18 -1 18 10 4
7 -9 20 -19 28 -22z m120 23 c0 -5 -4 -10 -10 -10 -5 0 -10 5 -10 10 0 6 5 10
10 10 6 0 10 -4 10 -10z m60 -25 c0 -8 -4 -17 -10 -20 -6 -3 -7 1 -4 9 4 11 0
16 -11 16 -9 0 -14 4 -10 10 8 13 35 1 35 -15z m-125 5 c-27 -12 -43 -12 -25
0 8 5 22 9 30 9 10 0 8 -3 -5 -9z m157 -14 c7 4 8 2 4 -4 -11 -18 -26 -14 -25
6 0 10 3 12 6 4 2 -6 10 -9 15 -6z m-225 -12 c-3 -3 -12 -4 -19 -1 -8 3 -5 6
6 6 11 1 17 -2 13 -5z m106 -1 c-13 -2 -33 -2 -45 0 -13 2 -3 4 22 4 25 0 35
-2 23 -4z m302 -183 c3 -5 2 -10 -4 -10 -5 0 -13 5 -16 10 -3 6 -2 10 4 10 5
0 13 -4 16 -10z m58 -10 c-3 -11 -7 -20 -9 -20 -2 0 -4 9 -4 20 0 11 4 20 9
20 5 0 7 -9 4 -20z m-93 0 c0 -5 -4 -10 -10 -10 -5 0 -10 5 -10 10 0 6 5 10
10 10 6 0 10 -4 10 -10z m-110 -32 c0 -18 -2 -20 -9 -8 -6 8 -7 18 -5 22 9 14
14 9 14 -14z m80 -28 c0 -5 -5 -10 -11 -10 -5 0 -7 5 -4 10 3 6 8 10 11 10 2
0 4 -4 4 -10z m-145 -29 c3 -5 1 -12 -5 -16 -5 -3 -10 1 -10 9 0 18 6 21 15 7z
m-25 -10 c0 -5 -7 -11 -14 -14 -10 -4 -13 -1 -9 9 6 15 23 19 23 5z m60 -9 c0
-11 -11 -24 -24 -30 -20 -9 -27 -8 -38 6 -11 15 -11 16 3 4 14 -10 20 -10 33
3 9 9 16 21 16 26 0 5 2 9 5 9 3 0 5 -8 5 -18z m37 -17 c-15 -16 -19 -13 -11
9 3 9 10 13 15 10 5 -3 3 -11 -4 -19z m190 -47 c-3 -7 -5 -2 -5 12 0 14 2 19
5 13 2 -7 2 -19 0 -25z m-202 13 c-3 -6 3 -14 12 -20 24 -14 7 -14 -19 0 -17
9 -18 13 -7 20 18 11 22 11 14 0z m97 -51 c6 0 9 -2 6 -5 -8 -9 -58 17 -52 27
3 4 12 1 20 -7 9 -8 20 -15 26 -15z m-542 -995 l0 -165 -160 0 -160 0 0 165 0
165 160 0 160 0 0 -165z m772 0 l1 -160 -162 -3 -161 -2 0 165 0 165 160 -2
161 -3 1 -160z m778 0 l0 -165 -165 0 -165 0 0 165 0 165 165 0 165 0 0 -165z
m-2071 -677 c30 -53 -22 -121 -77 -102 -40 14 -59 54 -43 92 23 55 91 61 120
10z m2354 31 c54 -25 60 -94 11 -126 -19 -12 -32 -14 -52 -7 -59 21 -67 100
-14 128 33 19 27 18 55 5z m-1174 -257 c33 -26 31 -79 -2 -108 -44 -38 -107
-8 -107 52 0 23 7 38 26 53 33 26 55 26 83 3z"/>
<path d="M1694 4134 c3 -9 6 -18 6 -20 0 -2 5 -4 11 -4 5 0 7 5 4 11 -4 6 -1
10 6 8 27 -3 40 1 34 11 -3 6 -20 10 -37 10 -23 0 -29 -4 -24 -16z"/>
<path d="M2324 2538 c-3 -4 3 -5 13 -1 16 6 16 5 4 -10 -8 -10 -11 -20 -7 -24
3 -4 13 2 21 13 13 17 14 17 15 2 0 -18 20 -26 20 -9 0 5 2 15 5 23 4 9 -5 13
-30 14 -20 0 -38 -3 -41 -8z"/>
<path d="M2070 2485 c0 -8 2 -15 4 -15 2 0 6 7 10 15 3 8 1 15 -4 15 -6 0 -10
-7 -10 -15z"/>
<path d="M2155 2491 c-3 -5 -2 -12 3 -15 5 -3 9 1 9 9 0 17 -3 19 -12 6z"/>
<path d="M2235 2491 c-6 -5 -19 -11 -30 -14 -16 -4 -14 -5 6 -6 16 -1 29 5 33
14 6 17 4 19 -9 6z"/>
<path d="M2287 2493 c-4 -3 -7 -11 -7 -17 0 -6 5 -5 12 2 6 6 9 14 7 17 -3 3
-9 2 -12 -2z"/>
</g>
</svg>
